<?xml version="1.0" encoding="utf-8"?>
<!-- Generator: Adobe Illustrator 16.0.0, SVG Export Plug-In . SVG Version: 6.00 Build 0)  -->
<!DOCTYPE svg PUBLIC "-//W3C//DTD SVG 1.1//EN" "http://www.w3.org/Graphics/SVG/1.1/DTD/svg11.dtd">
<svg version="1.1" id="Capa_1" xmlns="http://www.w3.org/2000/svg" xmlns:xlink="http://www.w3.org/1999/xlink" x="0px" y="0px"
	 width="395.375px" height="138.713px" viewBox="0 0 395.375 138.713" enable-background="new 0 0 395.375 138.713"
	 xml:space="preserve">
<path fill="#00AFE4" d="M217.969,55.017c-3.229,0-5.961,2.124-6.877,5.05c-3.227-3.62-6.912-5.05-12.332-5.05
	c-12.562,0-22.254,10.604-22.254,23.936c0,13.319,9.692,23.924,22.254,23.924c5.422,0,9.108-1.431,12.336-5.041
	c0.918,2.922,3.647,5.041,6.873,5.041c3.979,0,7.205-3.228,7.205-7.205v-33.45C225.174,58.244,221.947,55.017,217.969,55.017z
	 M200.795,90.151c-6.375,0-9.891-5.098-9.891-11.198c0-6.113,3.516-11.199,9.891-11.199c6.368,0,9.878,5.085,9.878,11.199
	C210.673,85.056,207.163,90.151,200.795,90.151z"/>
<path fill="#00AFE4" d="M338.495,55.017c-3.229,0-5.961,2.124-6.877,5.05c-3.228-3.62-6.912-5.05-12.332-5.05
	c-12.562,0-22.255,10.604-22.255,23.936c0,13.319,9.691,23.924,22.255,23.924c5.422,0,9.106-1.431,12.334-5.041
	c0.92,2.922,3.647,5.041,6.875,5.041c3.979,0,7.205-3.228,7.205-7.205v-33.45C345.7,58.244,342.475,55.017,338.495,55.017z
	 M321.32,90.151c-6.375,0-9.891-5.098-9.891-11.198c0-6.113,3.516-11.199,9.891-11.199c6.367,0,9.878,5.085,9.878,11.199
	C331.197,85.056,327.688,90.151,321.32,90.151z"/>
<path fill="#00AFE4" d="M363.378,97.824L357.2,111.53c-1.642,3.628-0.029,7.896,3.598,9.535c3.625,1.642,7.894,0.031,9.531-3.598
	l23.562-52.283c1.641-3.624,0.029-7.894-3.596-9.534c-3.627-1.639-7.896-0.028-9.533,3.598l-9.615,21.338l-9.731-21.245
	c-1.681-3.606-5.968-5.167-9.574-3.485c-3.604,1.682-5.166,5.97-3.483,9.575L363.378,97.824"/>
<path fill="#00AFE4" d="M263.032,79.625l6.79,18.565c1.457,2.781,4.48,4.683,7.837,4.683s6.334-1.899,7.791-4.683
	c3.25-8.358,13.002-33.441,13.002-33.441c1.394-3.728-0.5-7.878-4.229-9.272c-3.729-1.392-7.879,0.501-9.271,4.229l-8.115,20.877
	l-7.853-21.461c-0.95-2.552-3.379-4.115-5.952-4.102h0.001c-2.574-0.013-5.002,1.55-5.955,4.102l-7.85,21.461l-8.117-20.877
	c-1.391-3.728-5.543-5.621-9.271-4.229c-3.729,1.394-5.621,5.544-4.229,9.272c0,0,9.75,25.083,13,33.441
	c1.459,2.783,4.434,4.683,7.791,4.683c3.359,0,6.38-1.901,7.839-4.683L263.032,79.625z"/>
<g>
	<path fill="#00AFE4" d="M60.949,67.748c-6.376,0-9.892,5.084-9.892,11.2c0,6.102,3.516,11.197,9.892,11.197
		c6.367,0,9.877-5.097,9.877-11.197C70.826,72.832,67.316,67.748,60.949,67.748z"/>
	<g>
		<path fill="#00AFE4" d="M168.913,91.162c0.725,0.903,1.188,1.933,1.414,2.995c0.253-1.961,0.203-3.989-0.231-6.026l-4.625-21.651
			l-9.723,8.324L168.913,91.162z"/>
		<path fill="#00AFE4" d="M157.662,100.166L141.524,80.11c-0.058-0.071-0.106-0.147-0.161-0.223v15.775
			c0,3.98-3.227,7.205-7.205,7.205c-3.979,0-7.205-3.225-7.205-7.205V43.376c0-3.979,3.226-7.205,7.205-7.205
			s7.205,3.227,7.205,7.205v27.096l16.26-13.908c1.55-1.345,3.566-1.795,5.43-1.408l-8.551-40.042
			C152.42,5.365,142.73-0.859,132.898,1.24L15.07,26.406c-9.83,2.1-16.131,11.738-14.047,21.488l15.594,73.018
			c2.082,9.748,11.771,15.976,21.602,13.875l62.568-13.363l26.57,15.242c1.893,1.293,4.281,1.856,6.707,1.364
			c4.727-0.961,7.812-5.555,6.926-10.278l-2.965-14.28l18.021-3.851c5.113-1.093,9.256-4.233,11.775-8.36
			c-0.012,0.01-0.021,0.02-0.033,0.028C164.683,103.774,160.148,103.272,157.662,100.166z M85.327,95.664
			c0,3.979-3.226,7.205-7.205,7.205c-3.226,0-5.954-2.119-6.874-5.041c-3.227,3.612-6.913,5.041-12.334,5.041
			c-12.562,0-22.255-10.604-22.255-23.923c0-13.333,9.692-23.936,22.255-23.936c5.42,0,9.105,1.43,12.331,5.05
			c0.917-2.926,3.648-5.05,6.877-5.05c3.979,0,7.205,3.227,7.205,7.205V95.664z M106.488,102.869c-9.054,0-19.217-3.3-19.217-9.164
			c0-3.731,2.679-6.36,5.916-6.36c4.52,0,7.664,3.819,13.853,3.819c2.952,0,4.062-1.278,4.062-2.631
			c0-2.718-3.144-2.964-11.168-6.027c-7.398-2.805-11.367-5.346-11.367-12.478c0-7.552,7.021-15.018,18.566-15.018
			c5.816,0,16.625,2.555,16.625,9.427c0,3.311-2.592,5.591-6.003,5.591c-2.864,0-7.112-3.31-11.546-3.31
			c-1.941,0-3.789,0.854-3.789,2.803c0,5.184,22.529,3.996,22.529,18.503C124.949,97.353,116.367,102.869,106.488,102.869z"/>
	</g>
</g>
</svg>
